<?xml version="1.0" encoding="UTF-8"?><svg id="Layer_1" xmlns="http://www.w3.org/2000/svg" viewBox="0 0 810.29 507.95"><defs><style>.cls-1{fill:#fff;stroke-width:0px;}</style></defs><path class="cls-1" d="M236.49,3c3.71,0,6.59,1.49,8.64,4.46,2.04,2.98,3.06,6.69,3.06,11.15,0,8.92-3.53,19.33-10.58,31.22-7.07,11.9-16.08,21.65-27.04,29.26-10.97,7.62-22.21,12.92-33.73,15.89-23.04,70.98-34.56,170.76-34.56,299.34l.56,56.86c-13.01-5.21-28.25-8-45.71-8.36-.82-.02-1.63-.03-2.45-.03-16.63,0-33,3.63-49.11,10.9-16.91,7.61-28.33,16.81-34.28,27.59C63.32,311.07,112.19,183.43,157.9,98.32h-9.48c-10.78,0-20.63-1.85-29.54-5.57-8.92-3.71-15.15-8.64-18.67-14.77-3.54-6.13-5.3-11.98-5.3-17.56,0-8.17,2.87-15.51,8.64-22.02,5.76-6.5,12.72-9.76,20.91-9.76,7.05,0,12.82,2.23,17.28,6.69l-.55,4.46c-4.1-4.09-9.67-6.13-16.72-6.13-7.44,0-13.38,2.7-17.84,8.08-4.46,5.39-6.69,11.62-6.69,18.67,0,5.58,1.67,11.06,5.01,16.44,3.35,5.39,9.01,9.48,17,12.26,7.98,2.79,16.81,4.18,26.48,4.18l12.26-.56c17.09-31.22,32.14-53.97,45.15-68.28,13-14.3,23.22-21.46,30.66-21.46M179.08,89.4c10.77-2.97,21.09-8.17,30.94-15.61,9.84-7.43,17.84-16.53,23.97-27.31,6.13-10.77,9.2-20.07,9.2-27.87,0-7.05-2.23-10.59-6.69-10.59-7.44,0-16.44,6.51-27.04,19.51-10.58,13.01-20.72,33.64-30.38,61.87M236.49,0c-8.39,0-19.15,7.34-32.88,22.45-12.91,14.2-27.97,36.87-44.75,67.38l-10.51.48c-9.27,0-17.82-1.36-25.42-4.01-7.29-2.54-12.48-6.25-15.44-11.01-3.03-4.87-4.56-9.87-4.56-14.86,0-6.4,1.96-11.88,6-16.76,3.89-4.71,8.97-6.99,15.52-6.99s11.06,1.72,14.61,5.26l4.34,4.33.75-6.09.55-4.46.18-1.45-1.03-1.04c-5.02-5.02-11.54-7.57-19.4-7.57-9.03,0-16.82,3.62-23.15,10.77-6.24,7.03-9.4,15.11-9.4,24.01,0,6.09,1.92,12.5,5.7,19.06,3.84,6.69,10.61,12.09,20.12,16.04,9.23,3.85,19.55,5.8,30.69,5.8h4.48C107.96,186.24,59.36,313.74,8.42,480.4l-8.42,27.55,13.92-25.23c5.6-10.16,16.67-19.01,32.88-26.31,15.65-7.06,31.76-10.63,47.88-10.63.79,0,1.59,0,2.39.03,17.02.36,32.05,3.1,44.66,8.15l4.16,1.67-.04-4.48-.56-56.86c0-126.71,11.41-226.58,33.91-296.83,11.26-3.12,22.38-8.46,33.09-15.9,11.26-7.82,20.64-17.98,27.9-30.19,7.3-12.31,11.01-23.33,11.01-32.75,0-5.05-1.21-9.37-3.59-12.84-2.6-3.77-6.44-5.76-11.12-5.76h0ZM183.89,84.74c8.91-24.91,18.29-43.5,27.89-55.31,12.39-15.21,20.28-18.4,24.71-18.4,1.1,0,3.69,0,3.69,7.59s-2.96,16.12-8.81,26.39c-5.9,10.37-13.69,19.25-23.17,26.4-7.77,5.87-15.93,10.34-24.32,13.34h0Z"/><path class="cls-1" d="M415.98,21.95c15.6,0,30.29,4.93,44.04,14.77,13.74,9.85,24.33,25.83,31.77,47.94,7.43,22.11,11.15,47.85,11.15,77.2s-5.12,61.88-15.33,96.44c-10.22,34.56-23.97,66.43-41.25,95.6-17.28,29.18-37.16,53.15-59.65,71.91s-45.8,28.15-69.95,28.15c-19.33,0-36.15-4.74-50.45-14.21-14.31-9.48-25.36-24.25-33.17-44.32-7.8-20.07-11.7-44.59-11.7-73.58,0-20.43,2.04-43.56,6.13-69.4,4.08-25.82,11.42-51.65,22.02-77.48,10.59-25.83,23.14-48.78,37.63-68.84,14.49-20.07,30.1-36.7,46.82-49.89,16.72-13.19,32.14-22.2,46.27-27.04,14.12-4.83,26-7.25,35.67-7.25M361.35,417.73c14.49,0,29.73-7.89,45.7-23.69,15.98-15.79,30.85-36.7,44.6-62.71,13.75-26.01,24.81-54.16,33.17-84.45,8.35-30.28,12.54-58.81,12.54-85.56,0-42.73-7.16-75.53-21.46-98.39-14.31-22.86-32.61-34.28-54.91-34.28-14.87,0-29.92,4.93-45.15,14.77-15.24,9.85-29.09,24.62-41.53,44.32-12.45,19.7-22.39,44.87-29.82,75.53-7.44,30.66-11.15,65.32-11.15,103.96,0,26.02,2.59,51.1,7.8,75.25,5.2,24.16,13.19,42.74,23.97,55.74,10.77,13.01,22.86,19.51,36.24,19.51M415.98,18.95c-9.94,0-22.27,2.49-36.64,7.41-14.37,4.92-30.24,14.18-47.16,27.52-16.86,13.3-32.81,30.29-47.4,50.49-14.56,20.16-27.34,43.53-37.97,69.46-10.64,25.93-18.11,52.23-22.2,78.15-4.09,25.85-6.17,49.36-6.17,69.87,0,29.23,4.01,54.35,11.91,74.67,8.01,20.57,19.55,35.96,34.31,45.73,14.73,9.76,32.27,14.71,52.11,14.71,24.75,0,48.93-9.7,71.87-28.84,22.65-18.9,42.94-43.35,60.3-72.68,17.32-29.23,31.3-61.62,41.55-96.28,10.26-34.7,15.46-67.43,15.46-97.29s-3.8-55.83-11.31-78.16c-7.61-22.62-18.67-39.24-32.87-49.42-14.22-10.18-29.62-15.34-45.79-15.34h0ZM361.35,414.73c-12.39,0-23.8-6.2-33.93-18.42-10.41-12.56-18.27-30.89-23.34-54.46-5.13-23.8-7.74-48.9-7.74-74.62,0-38.25,3.72-72.99,11.07-103.25,7.31-30.19,17.22-55.3,29.44-74.63,12.15-19.23,25.82-33.83,40.62-43.4,14.68-9.48,29.33-14.29,43.52-14.29,21.38,0,38.51,10.75,52.36,32.88,13.93,22.28,21,54.84,21,96.79,0,26.35-4.18,54.87-12.43,84.77-8.26,29.92-19.34,58.13-32.93,83.85-13.54,25.62-28.36,46.47-44.06,61.98-15.32,15.15-29.98,22.82-43.59,22.82h0Z"/><path class="cls-1" d="M720.33,21.95c15.6,0,30.29,4.93,44.04,14.77,13.74,9.85,24.33,25.83,31.77,47.94,7.43,22.11,11.15,47.85,11.15,77.2s-5.12,61.88-15.33,96.44c-10.22,34.56-23.97,66.43-41.25,95.6-17.28,29.18-37.16,53.15-59.65,71.91s-45.8,28.15-69.95,28.15c-19.33,0-36.15-4.74-50.45-14.21-14.31-9.48-25.36-24.25-33.17-44.32-7.8-20.07-11.7-44.59-11.7-73.58,0-20.43,2.04-43.56,6.13-69.4,4.08-25.82,11.42-51.65,22.02-77.48,10.59-25.83,23.14-48.78,37.63-68.84,14.49-20.07,30.1-36.7,46.82-49.89,16.72-13.19,32.14-22.2,46.27-27.04,14.12-4.83,26-7.25,35.67-7.25M665.7,417.73c14.49,0,29.73-7.89,45.7-23.69,15.98-15.79,30.85-36.7,44.6-62.71,13.75-26.01,24.81-54.16,33.17-84.45,8.35-30.28,12.54-58.81,12.54-85.56,0-42.73-7.16-75.53-21.46-98.39-14.31-22.86-32.61-34.28-54.9-34.28-14.87,0-29.92,4.93-45.15,14.77-15.24,9.85-29.09,24.62-41.53,44.32-12.45,19.7-22.39,44.87-29.82,75.53-7.44,30.66-11.15,65.32-11.15,103.96,0,26.02,2.59,51.1,7.8,75.25,5.2,24.16,13.19,42.74,23.97,55.74,10.77,13.01,22.86,19.51,36.24,19.51M720.33,18.95c-9.94,0-22.27,2.49-36.64,7.41-14.37,4.92-30.24,14.18-47.16,27.52-16.86,13.3-32.81,30.29-47.4,50.49-14.56,20.16-27.34,43.53-37.97,69.46-10.64,25.93-18.11,52.23-22.2,78.15-4.09,25.85-6.17,49.36-6.17,69.87,0,29.23,4.01,54.35,11.91,74.67,8.01,20.57,19.55,35.96,34.31,45.73,14.74,9.76,32.27,14.71,52.11,14.71,24.75,0,48.93-9.7,71.87-28.84,22.65-18.9,42.94-43.35,60.3-72.68,17.32-29.23,31.3-61.62,41.55-96.28,10.26-34.7,15.46-67.43,15.46-97.29s-3.8-55.83-11.31-78.16c-7.61-22.62-18.67-39.24-32.87-49.42-14.22-10.18-29.62-15.34-45.79-15.34h0ZM665.7,414.73c-12.39,0-23.8-6.2-33.93-18.42-10.41-12.56-18.27-30.89-23.34-54.46-5.13-23.8-7.74-48.9-7.74-74.62,0-38.25,3.72-72.99,11.07-103.25,7.31-30.19,17.21-55.3,29.44-74.63,12.15-19.23,25.82-33.83,40.62-43.4,14.68-9.48,29.33-14.29,43.52-14.29,21.38,0,38.51,10.75,52.36,32.88,13.93,22.28,21,54.84,21,96.79,0,26.35-4.18,54.87-12.43,84.77-8.26,29.92-19.34,58.13-32.93,83.85-13.54,25.62-28.36,46.47-44.06,61.98-15.32,15.15-29.98,22.82-43.59,22.82h0Z"/><path class="cls-1" d="M412.73,446.81l.18,1.8c-1.8-1.08-3.89-1.62-6.29-1.62-1.92,0-4.16.57-6.74,1.71-2.58,1.14-4.85,3.14-6.83,6.02s-2.97,6.11-2.97,9.7c0,4.55,1.14,8.53,3.41,11.95,2.27,3.41,5.63,6.14,10.06,8.18,4.43,2.03,9.52,3.05,15.27,3.05,2.63,0,5.51-.69,8.62-2.07,3.11-1.38,5.78-3.89,8-7.55,2.21-3.65,3.32-7.75,3.32-12.31,0-.48-.06-1.28-.18-2.42-.12-1.14-.78-2.93-1.98-5.39-1.2-2.45-4.74-6.08-10.6-10.87-5.87-4.79-9.7-8.14-11.5-10.06-1.8-1.92-3.39-3.92-4.76-6.02-1.38-2.09-2.54-4.55-3.5-7.37-.96-2.81-1.44-5.84-1.44-9.07,0-7.31,2.93-13.39,8.81-18.24,5.87-4.85,13.59-7.28,23.18-7.28,6.83,0,12.61,1.65,17.34,4.94,4.73,3.29,7.1,7.7,7.1,13.21,0,1.92-.42,3.86-1.26,5.84s-2.19,3.57-4.04,4.76c-1.86,1.2-3.75,1.8-5.66,1.8-2.88,0-5.33-.87-7.37-2.61-2.04-1.74-3.05-3.86-3.05-6.38,0-1.8.57-3.41,1.71-4.85s2.49-2.33,4.04-2.7v1.44c-1.32.36-2.33,1.11-3.05,2.25s-1.08,2.42-1.08,3.86c0,1.92.81,3.62,2.43,5.12,1.62,1.5,3.8,2.25,6.56,2.25,2.39,0,4.52-1.05,6.38-3.15,1.86-2.09,2.79-4.64,2.79-7.64,0-3.59-1.2-6.74-3.59-9.43s-5.27-4.52-8.62-5.48c-3.35-.96-6.41-1.44-9.16-1.44s-5.15.66-7.55,1.98c-2.4,1.32-4.1,3.05-5.12,5.21s-1.53,4.25-1.53,6.29c0,2.88,1.02,5.81,3.05,8.81,2.03,3,5.9,7.01,11.59,12.04,5.69,5.03,9.85,9.1,12.49,12.22,2.63,3.12,4.55,6.29,5.75,9.52,1.2,3.23,1.8,6.23,1.8,8.98,0,6.71-1.62,12.55-4.85,17.52-3.23,4.97-7.76,8.95-13.57,11.95-5.81,2.99-12.49,4.49-20.03,4.49-5.39,0-10.66-.96-15.81-2.88-5.15-1.92-9.13-4.88-11.95-8.89-2.82-4.01-4.22-8.53-4.22-13.57,0-3.35.81-6.44,2.42-9.25,1.62-2.81,3.83-5.15,6.65-7.01,2.81-1.86,5.78-2.79,8.9-2.79,2.75,0,4.91.48,6.47,1.44Z"/><path class="cls-1" d="M437.16,306.66c0-2.27.54-4.67,1.62-7.19s2.46-4.49,4.13-5.93c-2.88,1.44-5.45,3.71-7.73,6.83-2.27,3.11-3.86,6.65-4.76,10.6-.9,3.96-1.35,7.67-1.35,11.14,0,5.63,1.17,11.38,3.5,17.25,2.34,5.87,5.96,11.44,10.87,16.71,4.91,5.27,11.35,9.95,19.32,14.02,7.96,4.07,17.22,7.13,27.76,9.16,2.27-12.22,3.41-19.46,3.41-21.74,0-1.55-.51-2.99-1.53-4.31-1.02-1.32-2.91-1.98-5.66-1.98-1.8,0-3.8.69-6.02,2.06-2.22,1.38-4.34,3.39-6.38,6.02l-1.62-.36c2.4-3.71,5.87-6.59,10.42-8.62,4.55-2.03,9.4-3.05,14.55-3.05,2.87,0,5.63.51,8.26,1.53,2.63,1.02,4.7,2.52,6.2,4.49,1.5,1.98,2.54,4.04,3.14,6.2,2.27-14.61,6.02-28.12,11.23-40.52,5.21-12.4,12.04-23.45,20.48-33.15,8.44-9.7,18.15-17.25,29.11-22.64s20.87-8.09,29.74-8.09c5.15,0,10.24.51,15.27,1.53,5.03,1.02,9.43,2.76,13.21,5.21,3.77,2.46,6.8,5.69,9.07,9.7,2.27,4.02,3.41,8.9,3.41,14.64,0,7.07-1.89,14.82-5.66,23.27-3.77,8.44-9.49,17.16-17.16,26.14-7.67,8.99-17.1,17.28-28.3,24.89-11.2,7.61-23.24,13.42-36.11,17.43-12.88,4.02-25.55,6.02-38,6.02l-8.27-.18-5.03,24.98c3.59-4.07,8.62-7.52,15.09-10.33,6.47-2.81,12.69-4.22,18.69-4.22,4.07,0,7.64.78,10.69,2.33,3.06,1.56,5.21,3.68,6.47,6.38,1.26,2.7,1.89,5.66,1.89,8.9,0,3.95-2.28,14.28-6.83,30.99-4.55,16.71-7.16,26.98-7.82,30.81-.66,3.84-.99,6.47-.99,7.91,0,2.04.48,3.87,1.44,5.48.96,1.62,2.58,2.42,4.85,2.42,1.08,0,2.66-.66,4.76-1.98,2.09-1.32,4.07-3.53,5.93-6.65,1.85-3.11,3.11-6.17,3.77-9.16.66-2.99,1.05-5.51,1.17-7.55h1.44c-.24,3.48-.9,6.95-1.98,10.42-1.08,3.48-2.85,6.8-5.3,9.97-2.46,3.17-5.33,5.42-8.62,6.74-3.29,1.32-6.32,1.98-9.07,1.98-.48,0-1.35-.06-2.61-.18-1.26-.12-3.18-.63-5.75-1.53-2.58-.9-4.94-2.85-7.1-5.84-2.16-3-3.23-6.71-3.23-11.14,0-6.35,1.71-16.29,5.12-29.83,3.41-13.54,5.36-22.16,5.84-25.87.48-3.71.72-6.53.72-8.44,0-3.59-.81-6.29-2.42-8.09-1.62-1.8-3.68-2.7-6.2-2.7-3.11,0-6.71,1.26-10.78,3.78-4.07,2.52-7.37,5.33-9.88,8.44l-16.53,75.82c-4.31-2.16-7.85-3.23-10.6-3.23-3.48,0-7.37.78-11.68,2.33l-1.44,7.01h-1.44c.6-2.88,4.13-18.96,10.6-48.24,6.47-29.29,11.02-50.7,13.65-64.24-8.15-1.55-15.6-3.77-22.37-6.65-6.77-2.87-12.58-6.17-17.43-9.88-4.85-3.71-8.92-7.69-12.22-11.95-3.29-4.25-5.96-9.01-8-14.28-2.03-5.27-3.05-10.84-3.05-16.71,0-5.39.96-10.57,2.87-15.54,1.92-4.97,4.61-8.92,8.09-11.86,3.48-2.93,7.61-4.4,12.4-4.4,3.48,0,6.5,1.38,9.07,4.13,2.58,2.76,3.87,5.93,3.87,9.52,0,3-.75,5.84-2.25,8.53-1.5,2.7-3.35,4.61-5.57,5.75-2.21,1.14-4.28,1.71-6.2,1.71-3.35,0-6.23-1.19-8.62-3.59s-3.59-5.51-3.59-9.34ZM516.22,366.49c0,1.32-.84,6.41-2.52,15.27l7.91.18c8.5,0,17.79-1.65,27.85-4.94,10.06-3.29,18.87-7.64,26.41-13.03,7.55-5.39,13.59-10.99,18.15-16.8,4.55-5.81,8.02-12.07,10.42-18.78,2.4-6.71,3.59-13.71,3.59-21.02,0-9.82-2.61-17.49-7.82-23-5.21-5.51-11.83-8.27-19.85-8.27-4.67,0-10,1.26-15.99,3.78-5.99,2.52-12.13,7.1-18.42,13.75-6.29,6.65-11.56,14.5-15.81,23.54-4.26,9.05-7.43,17.79-9.52,26.23-2.1,8.45-3.57,16.14-4.4,23.09Z"/><path class="cls-1" d="M642.36,407.82c2.03,0,4.1.66,6.2,1.98,2.1,1.32,3.77,3.57,5.03,6.74,1.26,3.18,1.89,6.56,1.89,10.15,0,6.83-1.23,14.05-3.68,21.65-2.46,7.61-5.6,14.19-9.43,19.76-3.84,5.57-7.85,10.09-12.04,13.56-4.19,3.47-8.36,5.87-12.49,7.19-4.13,1.32-7.82,1.98-11.05,1.98-3.95,0-7.91-.63-11.86-1.89-3.95-1.26-7.49-3.36-10.6-6.29-3.11-2.93-5.63-6.74-7.55-11.41-1.92-4.67-2.88-10.06-2.88-16.17,0-8.26,1.29-16.23,3.86-23.9,2.58-7.66,6.2-14.43,10.87-20.31,4.67-5.87,10.24-10.48,16.71-13.84,6.47-3.35,13.41-5.03,20.84-5.03,4.43,0,8.35.75,11.77,2.24,3.41,1.5,6.08,3.45,8,5.84l.18,1.62c-1.92-2.16-4.43-4.01-7.55-5.57-3.11-1.56-6.29-2.34-9.52-2.34s-6.86,1.14-10.51,3.41c-3.66,2.28-7.25,6.32-10.78,12.13-3.53,5.81-6.2,12.46-8,19.94-1.8,7.49-2.7,14.29-2.7,20.4,0,4.19.54,8.89,1.62,14.1,1.08,5.21,3.38,9.61,6.92,13.21,3.53,3.59,8.05,5.39,13.57,5.39,4.31,0,8.56-1.74,12.76-5.21,4.19-3.47,7.94-8.03,11.23-13.65,3.29-5.63,5.87-11.8,7.73-18.51,1.85-6.71,2.78-13,2.78-18.87v-2.16c-.6,3.59-2.15,6.71-4.67,9.34-2.52,2.64-5.57,3.95-9.17,3.95-3.35,0-6.23-1.19-8.62-3.59-2.4-2.4-3.59-5.51-3.59-9.34,0-2.99.75-5.9,2.24-8.71,1.5-2.81,3.41-4.82,5.75-6.02,2.33-1.2,4.58-1.8,6.74-1.8Z"/><path class="cls-1" d="M783.4,393.81c3.11,0,5.9,1.05,8.35,3.14,2.45,2.1,4.13,4.49,5.03,7.19.9,2.7,1.35,5.06,1.35,7.1,0,4.79-.6,10.39-1.8,16.8-1.2,6.41-3.32,13.03-6.38,19.85-3.05,6.83-6.65,13.03-10.78,18.6-4.13,5.57-8.44,10.27-12.94,14.11-4.49,3.83-8.51,6.47-12.04,7.91-3.53,1.44-6.44,2.15-8.71,2.15-7.19,0-13.06-1.29-17.61-3.86-4.55-2.58-7.25-6.56-8.09-11.95-4.43,4.55-8.98,8.18-13.65,10.87s-8.81,4.04-12.4,4.04c-8.03,0-14.35-1.56-18.96-4.67-4.61-3.12-6.92-8.09-6.92-14.91,0-5.63,2.52-15.81,7.55-30.55,5.03-14.73,7.91-24.17,8.62-28.3.72-4.13,1.08-7.22,1.08-9.25,0-4.31-1.8-6.47-5.39-6.47-2.52,0-5.33.96-8.44,2.88-3.12,1.92-5.15,3.66-6.11,5.21h-1.62c1.92-2.99,5.27-5.57,10.06-7.73,4.79-2.16,9.76-3.23,14.91-3.23,3.95,0,7.45.78,10.51,2.33,3.05,1.56,5.24,3.75,6.56,6.56,1.32,2.82,1.98,5.84,1.98,9.08,0,2.76-.54,6.44-1.62,11.05-1.08,4.61-3.95,13.87-8.62,27.76-4.67,13.9-7.01,22.94-7.01,27.13,0,3.48.45,6.02,1.35,7.64.9,1.62,2.54,2.42,4.94,2.42,3.35,0,7.04-1.29,11.05-3.86,4.01-2.57,8-6.08,11.95-10.51v-1.26c0-5.63,2.52-15.81,7.55-30.55,5.03-14.73,7.91-24.17,8.62-28.3s1.08-7.21,1.08-9.25c0-4.31-1.8-6.47-5.39-6.47-2.52,0-5.33.96-8.45,2.88s-5.15,3.66-6.11,5.21h-1.62c1.92-2.99,5.27-5.57,10.06-7.73,4.79-2.15,9.76-3.23,14.91-3.23,3.95,0,7.46.78,10.51,2.34,3.06,1.56,5.24,3.75,6.56,6.56,1.32,2.81,1.98,5.84,1.98,9.07,0,2.76-.54,6.44-1.62,11.05-1.08,4.61-3.95,13.87-8.62,27.76-4.67,13.9-7.01,22.94-7.01,27.13,0,3.47.45,6.02,1.35,7.64.9,1.62,2.54,2.42,4.94,2.42,4.55,0,9.58-2.24,15.09-6.74,5.51-4.49,10.72-10.39,15.63-17.7,4.91-7.3,8.92-15.33,12.04-24.08,3.11-8.74,4.79-17.01,5.03-24.8-1.56,2.16-3.63,4.16-6.2,6.02-2.58,1.86-5.48,2.79-8.71,2.79s-5.99-1.17-8.26-3.5c-2.28-2.33-3.41-5.42-3.41-9.25,0-.36.03-1.05.09-2.07.06-1.02.48-2.66,1.26-4.94.78-2.27,2.31-4.43,4.58-6.47,2.27-2.03,4.91-3.05,7.91-3.05Z"/></svg>